<svg width="141" height="58" fill="none" xmlns="http://www.w3.org/2000/svg"><g opacity=".7" fill="#fff"><path d="M25.453 24.881h11.96v-.014c0-6.418-5.337-11.622-11.917-11.622S13.58 18.449 13.58 24.867c0 6.39 5.307 11.58 11.858 11.609V24.88h.015zM50.847 24.797c0-6.63-2.647-12.85-7.448-17.533C38.598 2.581 32.235.014 25.452 0v2.525c12.582.014 22.806 10 22.806 22.272v.084h2.574c0-.028.015-.056.015-.084zM25.423 47.068c-12.581 0-22.834-9.986-22.834-22.257H0c0 6.615 2.646 12.85 7.448 17.518 4.8 4.683 11.178 7.264 17.975 7.264h.03v-2.525h-.03z"/><path d="M53.855 24.88h-3.023c-.029 6.588-2.66 12.794-7.447 17.448-4.787 4.67-11.165 7.25-17.947 7.264v7.589H53.84v-32.3h.015z"/><path d="M41.577 24.881c0 8.647-7.216 15.699-16.096 15.699-8.88 0-16.096-7.038-16.096-15.699 0-8.646 7.202-15.684 16.067-15.698V6.658c-4.975 0-9.66 1.904-13.189 5.331-3.528 3.442-5.466 8.012-5.466 12.892 0 4.88 1.938 9.45 5.466 12.892 3.529 3.442 8.214 5.332 13.218 5.332s9.69-1.89 13.218-5.332c3.529-3.441 5.467-8.011 5.467-12.878h-2.59v-.014zM55.677 52.992V29.014h10.31v3.075H60.16v6.897h4.584v3.046H60.16v7.927h5.886v3.033h-10.37zM74.65 53.317c-1.807 0-3.21-.339-4.237-1.03-1.026-.691-1.735-1.636-2.14-2.82-.405-1.2-.608-2.568-.608-4.133v-8.562c0-1.636.203-3.06.608-4.26.405-1.199 1.114-2.13 2.14-2.779 1.027-.648 2.43-.973 4.237-.973 1.692 0 3.023.282 3.992.847a4.723 4.723 0 012.053 2.412c.405 1.043.608 2.256.608 3.639v2.017h-4.31V35.6c0-.677-.029-1.283-.101-1.834-.072-.55-.26-.987-.578-1.311-.319-.325-.854-.494-1.62-.494-.767 0-1.33.17-1.678.522-.347.338-.578.804-.68 1.396-.1.579-.144 1.242-.144 1.975v10.424c0 .874.072 1.58.217 2.143.144.565.405.988.78 1.27.377.282.883.423 1.534.423.752 0 1.272-.17 1.59-.522.319-.338.507-.804.593-1.382.087-.578.116-1.213.116-1.918v-2.187h4.31v1.919c0 1.424-.188 2.68-.579 3.78a4.97 4.97 0 01-2.024 2.58c-.998.622-2.343.932-4.079.932zM90.326 53.316c-1.735 0-3.123-.31-4.15-.945-1.027-.634-1.765-1.537-2.213-2.722-.448-1.185-.665-2.58-.665-4.203v-8.97c0-1.623.217-3.005.665-4.161.448-1.157 1.186-2.031 2.213-2.652 1.026-.607 2.415-.917 4.15-.917 1.779 0 3.182.31 4.209.917 1.026.607 1.764 1.495 2.212 2.652.448 1.156.68 2.538.68 4.16v9c0 1.593-.232 2.99-.68 4.16-.448 1.17-1.2 2.088-2.213 2.722-1.026.635-2.43.96-4.208.96zm0-3.23c.752 0 1.302-.155 1.649-.48.347-.31.593-.747.708-1.297.116-.55.188-1.156.188-1.805V35.46c0-.677-.057-1.27-.188-1.805-.13-.536-.361-.945-.708-1.256-.347-.31-.911-.465-1.649-.465-.708 0-1.243.155-1.605.465-.362.31-.608.72-.723 1.256a8.476 8.476 0 00-.188 1.805v11.044c0 .649.058 1.255.173 1.805.116.55.347.988.709 1.298.362.324.911.48 1.634.48zM100.016 52.992V29.014h4.498v20.96h5.943v3.018h-10.441zM110.819 52.992l4.917-23.978h4.801l4.917 23.978h-4.151l-.968-5.53h-4.281l-.998 5.53h-4.237zm5.669-8.322h3.34l-1.663-10.057-1.677 10.057zM126.986 52.992V29.014h5.886c1.663 0 3.066.197 4.208.578 1.143.38 2.011 1.044 2.604 1.975.592.93.896 2.186.896 3.794 0 .973-.087 1.834-.275 2.61-.188.775-.491 1.424-.925 1.974-.434.536-1.041.96-1.808 1.255L141 53.006h-4.498l-2.979-10.974h-2.068v10.96h-4.469zm4.483-13.738h1.403c.868 0 1.562-.127 2.083-.367.52-.24.882-.635 1.113-1.185.217-.536.333-1.24.333-2.087 0-1.2-.232-2.102-.68-2.708-.448-.607-1.316-.903-2.589-.903h-1.634v7.25h-.029z"/></g></svg>