<svg width="284" height="937" fill="none" xmlns="http://www.w3.org/2000/svg"><g opacity=".7" fill="rgba(255, 255, 255, 0.6)"><path d="M3.741-32h276.346V86.834H244.65V19.667h-79.49V72.5h-35.112V19.667H38.691V87.5H3.74V-32zM0 186.667c0-20.833 3.902-37 11.867-48.833 7.965-11.834 18.856-20 32.511-24.667 13.818-4.667 29.585-7 47.63-7h98.671c18.857 0 35.275 2.333 49.092 7s24.546 12.833 32.024 24.667c7.477 11.833 11.216 28 11.216 48.833 0 19.501-3.251 34.834-9.753 46.001-6.502 11-15.768 19-27.797 23.666-12.03 4.667-26.009 7-41.94 7h-23.245v-49.666h23.895c7.803 0 14.793-.334 21.133-1.167 6.339-.833 11.379-3 15.117-6.667 3.739-3.667 5.69-9.833 5.69-18.667 0-8.833-1.951-15.333-6.015-19.333-3.901-4-9.265-6.667-16.093-7.833-6.665-1.167-14.305-1.667-22.758-1.667H81.116c-10.079 0-18.206.833-24.709 2.5-6.502 1.667-11.378 4.667-14.63 9-3.25 4.333-4.876 10.167-4.876 17.667 0 8.666 1.95 14.666 6.014 18.333 3.902 3.667 9.266 5.833 15.93 6.833 6.666 1.001 13.98 1.334 22.109 1.334h25.196v49.667H84.042c-16.418 0-30.886-2.167-43.565-6.667-12.68-4.5-22.433-12.167-29.748-23.333C3.577 222.168 0 206.668 0 186.667zM.002 367.335c0-20 3.576-36 10.89-47.833 7.316-11.834 17.72-20.334 31.374-25.5 13.655-5.167 29.748-7.667 48.442-7.667h103.386c18.694 0 34.625 2.5 47.954 7.667 13.33 5.166 23.409 13.666 30.561 25.5 6.99 11.833 10.566 27.833 10.566 47.833 0 20.501-3.576 36.667-10.566 48.501-6.99 11.833-17.231 20.333-30.561 25.5-13.329 5.167-29.26 7.833-47.954 7.833H90.384c-18.37 0-34.463-2.666-47.955-7.833-13.492-5.167-24.059-13.834-31.373-25.5C3.74 404.002.002 387.835.002 367.335zm37.225 0c0 8.667 1.788 15.001 5.527 19.001 3.576 4 8.616 6.833 14.955 8.166a101.119 101.119 0 0020.807 2.167h127.282c7.803 0 14.63-.667 20.808-2.167 6.177-1.5 10.891-4.166 14.467-8.166 3.576-4 5.364-10.501 5.365-19.001 0-8.166-1.789-14.333-5.365-18.5-3.576-4.166-8.29-7-14.467-8.333-6.178-1.333-13.005-2.167-20.808-2.167H78.516c-7.477 0-14.467.667-20.807 2-6.34 1.334-11.379 4-14.955 8.167-3.739 4.167-5.527 10.5-5.527 18.833zM3.741 479.002h276.346v51.834H38.528v68.5H3.741V479.002zM3.741 603.502l276.346 56.667v55.333L3.741 772.169v-47.833l63.722-11.167v-49.333L3.741 652.335v-48.833zm95.909 65.334v38.5l115.902-19.167L99.65 668.836zM3.74 789.836h276.347v67.834c0 19.167-2.275 35.334-6.664 48.5-4.389 13.167-12.03 23.167-22.758 30.001-10.729 6.833-25.197 10.333-43.728 10.333-11.217 0-21.133-1-30.073-3.167-8.941-2.166-16.418-5.666-22.758-10.666-6.177-5-11.054-12.001-14.468-20.834l-136.06 39.5v-51.833l126.469-34.334v-23.833H3.741v-51.501zm158.331 51.667v16.167c0 10 1.463 18 4.227 24 2.763 6 7.315 10.167 13.654 12.834 6.178 2.5 14.305 3.833 24.059 3.833 13.817 0 24.221-2.667 31.211-7.833 6.99-5.167 10.403-15.167 10.403-29.834v-18.833h-83.554v-.334z"/></g></svg>