<svg width="934" height="937" fill="none" xmlns="http://www.w3.org/2000/svg"><path opacity=".3" d="M933.003 406.829h-52.699c-.504 114.848-46.395 223.057-129.856 304.214-83.461 81.402-194.658 126.407-312.916 126.653v132.31h495.219V406.829h.252z" fill="#fff"/><g opacity=".3" fill="#fff"><path d="M437.785 406.829h208.526v-.246c0-111.898-93.042-202.645-207.77-202.645-114.727 0-207.77 90.747-207.77 202.645 0 111.406 92.538 201.908 206.761 202.4V406.829h.253zM880.557 405.354c0-115.587-46.143-224.041-129.857-305.69C666.987 18.016 556.042-26.743 437.785-26.989v44.021c219.369.246 397.637 174.364 397.637 388.322v1.475h44.883c0-.492.252-.983.252-1.475zM437.28 793.676c-219.369 0-398.142-174.117-398.142-388.075H-5.997c0 115.34 46.143 224.041 129.857 305.443 83.713 81.649 194.91 126.654 313.42 126.654h.504v-44.022h-.504z"/><path d="M718.93 406.829c0 150.755-125.822 273.719-280.641 273.719-154.819 0-280.641-122.718-280.641-273.719 0-150.754 125.57-273.473 280.136-273.719V89.089c-86.738 0-168.434 33.2-229.959 92.961-61.524 60.007-95.312 139.688-95.312 224.779 0 85.092 33.788 164.773 95.312 224.78 61.525 60.006 143.221 92.961 230.464 92.961s168.939-32.955 230.463-92.961c61.524-60.007 95.312-139.688 95.312-224.534H718.93v-.246z"/></g></svg>