<svg width="351" height="101" fill="none" xmlns="http://www.w3.org/2000/svg"><path d="M.004 99.537V1.11h42.325v12.622H18.406v28.312h18.818V54.55H18.406v32.538h24.16v12.449H.005zM77.887 100.869c-7.42 0-13.178-1.39-17.393-4.227-4.215-2.837-7.123-6.716-8.785-11.58-1.663-4.92-2.494-10.537-2.494-16.963V32.954c0-6.716.831-12.563 2.494-17.485 1.662-4.921 4.57-8.742 8.785-11.406C64.71 1.4 70.467.068 77.887.068c6.946 0 12.407 1.158 16.384 3.474 3.918 2.316 6.768 5.616 8.43 9.9 1.662 4.285 2.493 9.264 2.493 14.939v8.279h-17.69v-8.511c0-2.78-.119-5.269-.416-7.527-.296-2.258-1.068-4.053-2.374-5.384-1.306-1.332-3.502-2.027-6.649-2.027-3.146 0-5.46.695-6.886 2.142-1.424 1.39-2.374 3.3-2.79 5.732-.415 2.374-.593 5.095-.593 8.106v42.787c0 3.59.296 6.484.89 8.8.594 2.316 1.662 4.053 3.206 5.211 1.543 1.158 3.62 1.737 6.292 1.737 3.087 0 5.224-.695 6.53-2.142 1.306-1.39 2.078-3.3 2.434-5.674.356-2.374.475-4.98.475-7.874V63.06h17.69v7.875c0 5.847-.772 11-2.375 15.516s-4.333 7.99-8.31 10.596c-4.097 2.547-9.617 3.821-16.74 3.821zM142.236 100.868c-7.124 0-12.822-1.273-17.037-3.879-4.215-2.605-7.242-6.31-9.083-11.174-1.84-4.864-2.73-10.596-2.73-17.254V31.738c0-6.658.89-12.332 2.73-17.08 1.841-4.748 4.868-8.337 9.083-10.885 4.215-2.49 9.913-3.763 17.037-3.763 7.301 0 13.06 1.274 17.274 3.763 4.215 2.49 7.242 6.137 9.083 10.885 1.84 4.748 2.79 10.422 2.79 17.08v36.939c0 6.542-.95 12.274-2.79 17.08-1.841 4.805-4.927 8.569-9.083 11.174-4.214 2.606-9.973 3.937-17.274 3.937zm0-13.258c3.087 0 5.342-.637 6.767-1.969 1.425-1.274 2.434-3.069 2.909-5.327.475-2.258.772-4.747.772-7.41V27.568c0-2.779-.238-5.21-.772-7.41s-1.484-3.88-2.909-5.154c-1.425-1.273-3.74-1.91-6.767-1.91-2.909 0-5.105.637-6.589 1.91-1.484 1.274-2.494 2.953-2.969 5.153a34.828 34.828 0 00-.771 7.411v45.334c0 2.664.237 5.153.712 7.411s1.425 4.053 2.909 5.327c1.484 1.332 3.74 1.969 6.708 1.969zM182.008 99.537V1.11h18.462v86.036h24.398v12.39h-42.86zM226.352 99.537L246.535 1.11h19.708l20.184 98.427H269.39l-3.978-22.697h-17.571l-4.096 22.697h-17.393zm23.27-34.16h13.713l-6.827-41.282-6.886 41.282zM292.719 99.537V1.11h24.16c6.827 0 12.585.81 17.275 2.374 4.689 1.563 8.251 4.284 10.685 8.105 2.434 3.822 3.68 8.975 3.68 15.575 0 3.995-.356 7.527-1.128 10.711-.771 3.185-2.018 5.848-3.799 8.106-1.781 2.2-4.274 3.937-7.42 5.153l14.069 48.46h-18.462L319.551 54.55h-8.489v44.987h-18.343zm18.402-56.393h5.758c3.562 0 6.411-.521 8.548-1.505 2.137-.985 3.622-2.606 4.571-4.864.891-2.2 1.366-5.095 1.366-8.569 0-4.921-.95-8.627-2.79-11.116-1.841-2.49-5.402-3.706-10.626-3.706h-6.708v29.76h-.119z" fill="#fff"/></svg>