<!-- <?xml version="1.0" encoding="utf-8"?> -->
<!-- Generator: Adobe Illustrator 22.1.0, SVG Export Plug-In . SVG Version: 6.00 Build 0)  -->
<svg version="1.1" id="Слой_1"
	xmlns="http://www.w3.org/2000/svg"
	xmlns:xlink="http://www.w3.org/1999/xlink" x="0px" y="0px" viewBox="0 0 428 428" style="enable-background:new 0 0 428 428;" xml:space="preserve">
	<style type="text/css">
	.st0{fill:#00387B;}
	</style>
	<g>
		<path d="M203.8,187.7h82.7c0,0,0-0.1,0-0.1c0-45.5-36.9-82.4-82.4-82.4s-82.4,36.9-82.4,82.4c0,45.3,36.7,82.1,82,82.3V187.7z"/>
		<path d="M379.4,187.1c0-47-18.3-91.1-51.5-124.3c-33.1-33.1-77.2-51.4-124.1-51.5v17.9c87,0.1,157.7,70.9,157.7,157.9
		c0,0.2,0,0.4,0,0.6h17.9C379.4,187.5,379.4,187.3,379.4,187.1z"/>
		<path d="M203.6,345c-87,0-157.9-70.8-157.9-157.8H27.8c0,46.9,18.3,91.1,51.5,124.2c33.2,33.2,77.3,51.5,124.3,51.5
		c0.1,0,0.2,0,0.2,0V345C203.7,345,203.7,345,203.6,345z"/>
		<path class="st0" d="M400.2,187.7h-20.8c-0.2,46.7-18.4,90.7-51.5,123.7c-33.1,33.1-77.2,51.4-124.1,51.5v53.8h196.4V187.7z"/>
		<path d="M315.3,187.7c0,61.3-49.9,111.3-111.3,111.3c-61.4,0-111.3-49.9-111.3-111.3c0-61.3,49.8-111.2,111.1-111.3V58.5
		c-34.4,0-66.8,13.5-91.2,37.8c-24.4,24.4-37.8,56.8-37.8,91.4s13.4,67,37.8,91.4c24.4,24.4,56.8,37.8,91.4,37.8s67-13.4,91.4-37.8
		c24.4-24.4,37.8-56.8,37.8-91.3H315.3z"/>
	</g>
</svg>
