<svg xmlns="http://www.w3.org/2000/svg" viewBox="0 0 428 428"><path d="M203.8 187.7h82.7v-.1c0-45.5-36.9-82.4-82.4-82.4s-82.4 36.9-82.4 82.4c0 45.3 36.7 82.1 82 82.3v-82.2zM379.4 187.1c0-47-18.3-91.1-51.5-124.3-33.1-33.1-77.2-51.4-124.1-51.5v17.9c87 .1 157.7 70.9 157.7 157.9v.6h17.9v-.6zM203.6 345c-87 0-157.9-70.8-157.9-157.8H27.8c0 46.9 18.3 91.1 51.5 124.2 33.2 33.2 77.3 51.5 124.3 51.5h.2V345h-.2z"/><path d="M400.2 187.7h-20.8c-.2 46.7-18.4 90.7-51.5 123.7-33.1 33.1-77.2 51.4-124.1 51.5v53.8h196.4v-229z" fill="#00387b"/><path d="M315.3 187.7C315.3 249 265.4 299 204 299S92.7 249.1 92.7 187.7c0-61.3 49.8-111.2 111.1-111.3V58.5c-34.4 0-66.8 13.5-91.2 37.8-24.4 24.4-37.8 56.8-37.8 91.4s13.4 67 37.8 91.4c24.4 24.4 56.8 37.8 91.4 37.8s67-13.4 91.4-37.8c24.4-24.4 37.8-56.8 37.8-91.3h-17.9z"/></svg>