<svg xmlns="http://www.w3.org/2000/svg" viewBox="0 0 1000 428"><path d="M188.5 185.7h82.7v-.1c0-45.5-36.9-82.4-82.4-82.4s-82.4 36.9-82.4 82.4c0 45.3 36.7 82.1 82 82.3v-82.2zM364.1 185.1c0-47-18.3-91.1-51.5-124.3S235.4 9.4 188.5 9.3v17.9c87 .1 157.7 70.9 157.7 157.9v.6H364c0-.2.1-.4.1-.6zM188.3 343c-87 0-157.9-70.8-157.9-157.8H12.5c0 46.9 18.3 91.1 51.5 124.2 33.2 33.2 77.3 51.5 124.3 51.5h.2V343h-.2z"/><path d="M384.9 185.7H364c-.2 46.7-18.4 90.7-51.5 123.7-33.1 33.1-77.2 51.4-124.1 51.5v53.8h196.4v-229z" fill="#00387b"/><path d="M300 185.7C300 247 250.1 297 188.7 297S77.4 247.1 77.4 185.7c0-61.3 49.8-111.2 111.1-111.3V56.5c-34.4 0-66.8 13.5-91.2 37.8-24.4 24.4-37.8 56.8-37.8 91.4s13.4 67 37.8 91.4c24.4 24.4 56.8 37.8 91.4 37.8s67-13.4 91.4-37.8c24.4-24.4 37.8-56.8 37.8-91.3H300zM397.5 385V215h71.3v21.8h-40.3v48.9h31.7v21.6h-31.7v56.2h40.7V385h-71.7zM528.7 387.3c-12.5 0-22.2-2.4-29.3-7.3-7.1-4.9-12-11.6-14.8-20-2.8-8.5-4.2-18.2-4.2-29.3V270c0-11.6 1.4-21.7 4.2-30.2 2.8-8.5 7.7-15.1 14.8-19.7 7.1-4.6 16.8-6.9 29.3-6.9 11.7 0 20.9 2 27.6 6 6.6 4 11.4 9.7 14.2 17.1 2.8 7.4 4.2 16 4.2 25.8v14.3h-29.8v-14.7c0-4.8-.2-9.1-.7-13-.5-3.9-1.8-7-4-9.3-2.2-2.3-5.9-3.5-11.2-3.5-5.3 0-9.2 1.2-11.6 3.7-2.4 2.4-4 5.7-4.7 9.9-.7 4.1-1 8.8-1 14v73.9c0 6.2.5 11.2 1.5 15.2s2.8 7 5.4 9c2.6 2 6.1 3 10.6 3 5.2 0 8.8-1.2 11-3.7 2.2-2.4 3.5-5.7 4.1-9.8.6-4.1.8-8.6.8-13.6V322h29.8v13.6c0 10.1-1.3 19-4 26.8-2.7 7.8-7.3 13.8-14 18.3-6.9 4.4-16.2 6.6-28.2 6.6zM637.1 387.3c-12 0-21.6-2.2-28.7-6.7-7.1-4.5-12.2-10.9-15.3-19.3-3.1-8.4-4.6-18.3-4.6-29.8v-63.6c0-11.5 1.5-21.3 4.6-29.5 3.1-8.2 8.2-14.4 15.3-18.8 7.1-4.3 16.7-6.5 28.7-6.5 12.3 0 22 2.2 29.1 6.5 7.1 4.3 12.2 10.6 15.3 18.8 3.1 8.2 4.7 18 4.7 29.5v63.8c0 11.3-1.6 21.2-4.7 29.5s-8.3 14.8-15.3 19.3c-7.1 4.5-16.8 6.8-29.1 6.8zm0-22.9c5.2 0 9-1.1 11.4-3.4 2.4-2.2 4.1-5.3 4.9-9.2.8-3.9 1.3-8.2 1.3-12.8v-78.3c0-4.8-.4-9-1.3-12.8s-2.5-6.7-4.9-8.9c-2.4-2.2-6.3-3.3-11.4-3.3-4.9 0-8.6 1.1-11.1 3.3-2.5 2.2-4.2 5.1-5 8.9-.8 3.8-1.3 8-1.3 12.8V339c0 4.6.4 8.9 1.2 12.8.8 3.9 2.4 7 4.9 9.2 2.5 2.3 6.3 3.4 11.3 3.4zM704.1 385V215h31.1v148.6h41.1V385h-72.2zM778.8 385l34-170H846l34 170h-28.7l-6.7-39.2H815l-6.9 39.2h-29.3zm39.2-59h23.1l-11.5-71.3L818 326zM890.6 385V215h40.7c11.5 0 21.2 1.4 29.1 4.1 7.9 2.7 13.9 7.4 18 14s6.2 15.5 6.2 26.9c0 6.9-.6 13-1.9 18.5-1.3 5.5-3.4 10.1-6.4 14-3 3.8-7.2 6.8-12.5 8.9l23.7 83.7h-31.1l-20.6-77.8h-14.3V385h-30.9zm31-97.4h9.7c6 0 10.8-.9 14.4-2.6 3.6-1.7 6.1-4.5 7.7-8.4 1.5-3.8 2.3-8.8 2.3-14.8 0-8.5-1.6-14.9-4.7-19.2-3.1-4.3-9.1-6.4-17.9-6.4h-11.3v51.4z"/></svg>