<?xml version="1.0" encoding="utf-8"?>
<!-- Generator: Adobe Illustrator 22.1.0, SVG Export Plug-In . SVG Version: 6.00 Build 0)  -->
<svg version="1.1" id="Слой_1" xmlns="http://www.w3.org/2000/svg" xmlns:xlink="http://www.w3.org/1999/xlink" x="0px" y="0px"
	 viewBox="0 0 1000 428" style="enable-background:new 0 0 1000 428;" xml:space="preserve">
<style type="text/css">
	.st0{fill:#00387B;}
</style>
<g>
	<path d="M188.5,185.7h82.7c0,0,0-0.1,0-0.1c0-45.5-36.9-82.4-82.4-82.4s-82.4,36.9-82.4,82.4c0,45.3,36.7,82.1,82,82.3V185.7z"/>
	<path d="M364.1,185.1c0-47-18.3-91.1-51.5-124.3C279.4,27.6,235.4,9.4,188.5,9.3v17.9c87,0.1,157.7,70.9,157.7,157.9
		c0,0.2,0,0.4,0,0.6H364C364,185.5,364.1,185.3,364.1,185.1z"/>
	<path d="M188.3,343c-87,0-157.9-70.8-157.9-157.8H12.5c0,46.9,18.3,91.1,51.5,124.2c33.2,33.2,77.3,51.5,124.3,51.5
		c0.1,0,0.2,0,0.2,0V343C188.4,343,188.3,343,188.3,343z"/>
	<path class="st0" d="M384.9,185.7H364c-0.2,46.7-18.4,90.7-51.5,123.7c-33.1,33.1-77.2,51.4-124.1,51.5v53.8h196.4V185.7z"/>
	<path d="M300,185.7c0,61.3-49.9,111.3-111.3,111.3c-61.4,0-111.3-49.9-111.3-111.3c0-61.3,49.8-111.2,111.1-111.3V56.5
		c-34.4,0-66.8,13.5-91.2,37.8c-24.4,24.4-37.8,56.8-37.8,91.4s13.4,67,37.8,91.4c24.4,24.4,56.8,37.8,91.4,37.8s67-13.4,91.4-37.8
		c24.4-24.4,37.8-56.8,37.8-91.3H300z"/>
	<g>
		<path d="M397.5,385V215h71.3v21.8h-40.3v48.9h31.7v21.6h-31.7v56.2h40.7V385H397.5z"/>
		<path d="M528.7,387.3c-12.5,0-22.2-2.4-29.3-7.3c-7.1-4.9-12-11.6-14.8-20c-2.8-8.5-4.2-18.2-4.2-29.3V270
			c0-11.6,1.4-21.7,4.2-30.2c2.8-8.5,7.7-15.1,14.8-19.7c7.1-4.6,16.8-6.9,29.3-6.9c11.7,0,20.9,2,27.6,6c6.6,4,11.4,9.7,14.2,17.1
			c2.8,7.4,4.2,16,4.2,25.8v14.3h-29.8v-14.7c0-4.8-0.2-9.1-0.7-13c-0.5-3.9-1.8-7-4-9.3c-2.2-2.3-5.9-3.5-11.2-3.5
			c-5.3,0-9.2,1.2-11.6,3.7c-2.4,2.4-4,5.7-4.7,9.9c-0.7,4.1-1,8.8-1,14v73.9c0,6.2,0.5,11.2,1.5,15.2c1,4,2.8,7,5.4,9
			c2.6,2,6.1,3,10.6,3c5.2,0,8.8-1.2,11-3.7c2.2-2.4,3.5-5.7,4.1-9.8c0.6-4.1,0.8-8.6,0.8-13.6V322h29.8v13.6c0,10.1-1.3,19-4,26.8
			c-2.7,7.8-7.3,13.8-14,18.3C550,385.1,540.7,387.3,528.7,387.3z"/>
		<path d="M637.1,387.3c-12,0-21.6-2.2-28.7-6.7c-7.1-4.5-12.2-10.9-15.3-19.3c-3.1-8.4-4.6-18.3-4.6-29.8v-63.6
			c0-11.5,1.5-21.3,4.6-29.5c3.1-8.2,8.2-14.4,15.3-18.8c7.1-4.3,16.7-6.5,28.7-6.5c12.3,0,22,2.2,29.1,6.5
			c7.1,4.3,12.2,10.6,15.3,18.8c3.1,8.2,4.7,18,4.7,29.5v63.8c0,11.3-1.6,21.2-4.7,29.5c-3.1,8.3-8.3,14.8-15.3,19.3
			C659.1,385,649.4,387.3,637.1,387.3z M637.1,364.4c5.2,0,9-1.1,11.4-3.4c2.4-2.2,4.1-5.3,4.9-9.2c0.8-3.9,1.3-8.2,1.3-12.8v-78.3
			c0-4.8-0.4-9-1.3-12.8s-2.5-6.7-4.9-8.9c-2.4-2.2-6.3-3.3-11.4-3.3c-4.9,0-8.6,1.1-11.1,3.3c-2.5,2.2-4.2,5.1-5,8.9
			c-0.8,3.8-1.3,8-1.3,12.8V339c0,4.6,0.4,8.9,1.2,12.8c0.8,3.9,2.4,7,4.9,9.2C628.3,363.3,632.1,364.4,637.1,364.4z"/>
		<path d="M704.1,385V215h31.1v148.6h41.1V385H704.1z"/>
		<path d="M778.8,385l34-170h33.2l34,170h-28.7l-6.7-39.2h-29.6l-6.9,39.2H778.8z M818,326h23.1l-11.5-71.3L818,326z"/>
		<path d="M890.6,385V215h40.7c11.5,0,21.2,1.4,29.1,4.1c7.9,2.7,13.9,7.4,18,14c4.1,6.6,6.2,15.5,6.2,26.9c0,6.9-0.6,13-1.9,18.5
			c-1.3,5.5-3.4,10.1-6.4,14c-3,3.8-7.2,6.8-12.5,8.9l23.7,83.7h-31.1l-20.6-77.8h-14.3V385H890.6z M921.6,287.6h9.7
			c6,0,10.8-0.9,14.4-2.6c3.6-1.7,6.1-4.5,7.7-8.4c1.5-3.8,2.3-8.8,2.3-14.8c0-8.5-1.6-14.9-4.7-19.2c-3.1-4.3-9.1-6.4-17.9-6.4
			h-11.3V287.6z"/>
	</g>
</g>
</svg>
