<svg width="142" height="59" fill="none" xmlns="http://www.w3.org/2000/svg"><path d="M25.633 25.79h12.045v-.014c0-6.463-5.375-11.705-12.001-11.705-6.627 0-12.001 5.242-12.001 11.705 0 6.435 5.345 11.662 11.942 11.69V25.79h.015zM51.207 25.705c0-6.676-2.665-12.94-7.5-17.657C38.872 3.332 32.463.748 25.633.733v2.543c12.67.014 22.967 10.07 22.967 22.43v.084h2.593c0-.028.014-.056.014-.085zM25.604 48.135c-12.671 0-22.997-10.057-22.997-22.416H0c0 6.662 2.665 12.94 7.5 17.643 4.836 4.716 11.259 7.315 18.104 7.315h.029v-2.542h-.03z" fill="#fff"/><path d="M54.237 25.79h-3.044c-.029 6.634-2.68 12.884-7.5 17.572-4.821 4.701-11.244 7.3-18.074 7.315v7.642h28.604V25.79h.014z" fill="#00387B"/><path d="M41.872 25.79c0 8.708-7.268 15.81-16.21 15.81s-16.21-7.088-16.21-15.81c0-8.707 7.253-15.796 16.18-15.81V7.437c-5.01 0-9.728 1.918-13.282 5.37-3.553 3.466-5.505 8.068-5.505 12.983 0 4.915 1.952 9.517 5.506 12.983 3.553 3.466 8.272 5.37 13.311 5.37 5.04 0 9.758-1.904 13.312-5.37 3.553-3.466 5.505-8.068 5.505-12.969h-2.607v-.014zM56.072 54.1V29.952h10.384v3.097h-5.87v6.946h4.618v3.068h-4.617v7.983h5.927V54.1H56.072zM75.18 54.428c-1.82 0-3.233-.34-4.267-1.037-1.034-.696-1.748-1.648-2.156-2.84-.408-1.208-.612-2.586-.612-4.163v-8.622c0-1.648.204-3.083.612-4.29.408-1.208 1.122-2.145 2.156-2.799 1.034-.653 2.447-.98 4.267-.98 1.704 0 3.044.284 4.02.853a4.756 4.756 0 012.068 2.429c.408 1.05.611 2.272.611 3.665v2.03h-4.34v-2.087c0-.682-.029-1.293-.102-1.847-.072-.554-.262-.994-.582-1.321-.32-.327-.86-.497-1.631-.497-.772 0-1.34.17-1.69.525-.35.341-.582.81-.684 1.407-.102.582-.146 1.25-.146 1.988V47.34c0 .88.073 1.59.219 2.159.145.568.407.994.786 1.278.379.284.888.426 1.544.426.757 0 1.281-.17 1.602-.525.32-.341.51-.81.597-1.392.087-.583.117-1.222.117-1.932v-2.202h4.34v1.932c0 1.435-.19 2.699-.583 3.807a5.006 5.006 0 01-2.039 2.6c-1.005.624-2.36.937-4.107.937zM90.967 54.428c-1.747 0-3.145-.313-4.18-.952-1.034-.64-1.776-1.548-2.228-2.742-.451-1.193-.67-2.6-.67-4.233v-9.034c0-1.634.219-3.026.67-4.19.452-1.165 1.194-2.046 2.228-2.671 1.034-.61 2.433-.923 4.18-.923 1.792 0 3.204.312 4.239.923 1.034.61 1.776 1.506 2.228 2.67.451 1.165.684 2.557.684 4.19v9.064c0 1.605-.233 3.011-.684 4.19-.452 1.18-1.21 2.102-2.228 2.742-1.035.639-2.447.966-4.239.966zm0-3.253c.758 0 1.311-.157 1.66-.483.35-.313.598-.753.714-1.307.117-.554.19-1.165.19-1.818V36.444c0-.682-.059-1.278-.19-1.818-.13-.54-.364-.952-.713-1.264-.35-.313-.918-.47-1.66-.47-.714 0-1.253.157-1.617.47-.364.312-.612.724-.728 1.264a8.531 8.531 0 00-.19 1.818v11.123c0 .653.058 1.264.175 1.818.116.554.35.994.714 1.307.364.326.917.483 1.645.483zM100.725 54.1V29.952h4.53v21.109h5.985v3.04h-10.515zM111.605 54.1l4.952-24.148h4.835l4.952 24.148h-4.18l-.976-5.568h-4.311l-1.005 5.569h-4.267zm5.709-8.38h3.364l-1.674-10.128-1.69 10.128zM127.887 54.1V29.952h5.928c1.675 0 3.087.199 4.238.583 1.151.383 2.024 1.05 2.622 1.988.597.938.902 2.202.902 3.821 0 .98-.087 1.847-.276 2.628-.19.782-.495 1.435-.932 1.989-.437.54-1.049.966-1.821 1.264L142 54.115h-4.53l-3-11.052h-2.082V54.1h-4.501zm4.515-13.835h1.413c.874 0 1.573-.128 2.097-.37.524-.24.888-.639 1.121-1.193.219-.54.335-1.25.335-2.102 0-1.207-.233-2.117-.684-2.727-.452-.611-1.325-.91-2.607-.91h-1.646v7.302h-.029z" fill="#fff"/></svg>