<svg width="617" height="251" fill="none" xmlns="http://www.w3.org/2000/svg"><g opacity=".1" stroke="#333"><path d="M111.313 108.376h-.5v50.73c-28.172-.383-50.891-22.783-50.891-50.292 0-27.795 23.115-50.358 51.644-50.358 28.379 0 51.401 22.326 51.643 49.92h-51.896zM189.56 32.144c20.884 20.369 32.405 47.409 32.44 76.232h-10.328c-.072-53.763-44.749-97.502-99.796-97.826V.502c29.364.186 56.888 11.359 77.684 31.642zM32.94 184.868l-.001-.001C12.146 164.648.634 137.693.5 109.068H10.83c.277 53.635 45.07 97.199 100.047 97.395v10.048c-29.473-.094-57.11-11.33-77.937-31.643zM190.195 185.583c20.922-20.344 32.481-47.434 32.738-76.207h12.166v140.342H111.813v-32.209c29.621-.186 57.459-11.518 78.382-31.926z"/><path d="M192.762 109.438c-.132 20.97-8.544 40.644-23.768 55.493-15.346 14.968-35.724 23.189-57.491 23.189-21.767 0-42.145-8.221-57.49-23.189-15.346-14.966-23.77-34.836-23.77-56.055s8.424-41.088 23.769-56.055c15.229-14.792 35.411-23.06 56.865-23.187v10.049c-38.828.324-70.307 31.233-70.307 69.193 0 38.185 31.814 69.196 70.933 69.196 38.928 0 70.62-30.768 70.931-68.634h10.328zM263.253 219.116h25.256v12.27h-44.373V127.46h44.12v12.455h-25.503v31.182h20.061v12.332h-20.061v35.687h.5zM326.662 232.807c-7.855 0-13.882-1.472-18.263-4.421-4.398-2.96-7.433-7.005-9.171-12.09-1.751-5.184-2.631-11.115-2.631-17.923v-37.465c0-7.121.881-13.298 2.631-18.48 1.738-5.146 4.77-9.123 9.159-11.896 4.384-2.77 10.417-4.182 18.275-4.182 7.356 0 13.079 1.228 17.213 3.635 4.081 2.413 7.042 5.844 8.773 10.304 1.745 4.497 2.624 9.742 2.624 15.743v8.326h-17.858v-8.573c0-2.976-.127-5.653-.448-8.089-.326-2.485-1.183-4.509-2.67-6.025-1.53-1.561-4.036-2.31-7.444-2.31-3.407 0-6.037.749-7.694 2.429-1.605 1.568-2.657 3.706-3.114 6.38-.449 2.568-.64 5.499-.64 8.726v45.612c0 3.851.318 6.982.965 9.506.654 2.552 1.845 4.513 3.601 5.83 1.759 1.32 4.092 1.952 7.008 1.952 3.347 0 5.798-.751 7.329-2.445 1.483-1.579 2.333-3.723 2.721-6.313.385-2.566.512-5.371.512-8.468v-9.067h17.858v7.894c0 6.191-.817 11.625-2.502 16.374-1.672 4.71-4.512 8.324-8.657 11.041-4.259 2.646-10.039 3.995-17.577 3.995zM395.26 232.806c-7.542 0-13.514-1.35-17.899-4.061-4.396-2.717-7.553-6.578-9.478-11.663-1.934-5.114-2.878-11.161-2.878-18.216v-39.255c0-7.056.944-13.04 2.877-18.027 1.922-4.959 5.076-8.697 9.473-11.355 4.389-2.592 10.365-3.941 17.905-3.941 7.733 0 13.773 1.35 18.161 3.942 4.391 2.594 7.547 6.391 9.47 11.354 1.934 4.99 2.941 10.975 2.941 18.027v39.378c0 6.928-1.006 12.975-2.942 18.029-1.924 5.024-5.145 8.948-9.479 11.666-4.386 2.711-10.422 4.122-18.151 4.122zm0-13.134c3.339 0 5.896-.685 7.551-2.23 1.607-1.438 2.729-3.45 3.253-5.944.513-2.439.834-5.127.834-8.003v-48.328c0-2.99-.256-5.624-.837-8.018-.589-2.426-1.647-4.312-3.254-5.748-1.653-1.478-4.27-2.164-7.547-2.164-3.164 0-5.642.691-7.35 2.157-1.67 1.433-2.799 3.322-3.327 5.767-.514 2.379-.834 5.007-.834 8.006v48.328c0 2.868.256 5.557.77 8.003.523 2.485 1.578 4.505 3.26 5.951 1.713 1.535 4.262 2.223 7.481 2.223zM457.339 219.178h25.509v12.208h-44.689V127.46h18.68v91.718h.5zM527.062 207.605l-.072-.414h-19.57l-.074.412-4.292 23.783h-17.511l21.311-103.926h20.194l21.311 103.926H531.23l-4.168-23.781zm-17.818-12.217l-.098.583h15.798l-.096-.582-7.277-44.007-.987-.001-7.34 44.007zM574.734 183.929v47.457H556.18V127.46h25.256c7.24 0 13.322.86 18.257 2.505 4.899 1.633 8.599 4.466 11.127 8.435 2.526 3.967 3.845 9.356 3.845 16.335 0 4.229-.377 7.953-1.188 11.3-.808 3.334-2.108 6.104-3.955 8.447-1.834 2.265-4.414 4.069-7.7 5.339l-.428.165.128.441 14.812 51.021h-18.632l-12.936-47.65-.1-.369H574.734v.5zm21.148-18.755h0l.002-.006c.981-2.424 1.492-5.579 1.492-9.322 0-5.299-1.02-9.372-3.072-12.148-2.107-2.851-6.114-4.153-11.729-4.153h-7.651v32.225h.373v.5H581.436c3.839 0 6.955-.561 9.321-1.651 2.403-1.107 4.069-2.934 5.125-5.445z"/></g></svg>