<svg width="27" height="27" viewBox="0 0 27 27" fill="none" xmlns="http://www.w3.org/2000/svg">
<path d="M12.3563 14.5833C12.1299 15.1039 12.0166 15.8033 12.0166 16.6815H14.5738L14.6138 16.1075C14.687 15.4928 14.9767 14.9565 15.4828 14.4987L16.2919 13.7742C16.9245 13.1971 17.3674 12.6734 17.6204 12.203C17.8735 11.7263 18 11.2213 18 10.6882C18 9.51523 17.6104 8.60887 16.8313 7.96909C16.0522 7.32303 14.9567 7 13.545 7C12.1465 7 11.0411 7.33871 10.2286 8.01613C9.42286 8.69355 9.01332 9.63127 9 10.8293H11.8968C11.9101 10.3275 12.0633 9.93548 12.3563 9.65323C12.6559 9.3647 13.0522 9.22043 13.545 9.22043C14.5838 9.22043 15.1032 9.75045 15.1032 10.8105C15.1032 11.1617 15.0033 11.4973 14.8036 11.8172C14.6038 12.1308 14.2009 12.5417 13.5949 13.0497C12.9956 13.5515 12.5827 14.0627 12.3563 14.5833Z" fill="#F2F2F2"/>
<path d="M12.1765 18.5349C11.8768 18.8047 11.727 19.1496 11.727 19.5699C11.727 19.9839 11.8735 20.3257 12.1665 20.5954C12.4661 20.8651 12.859 21 13.3452 21C13.8313 21 14.2209 20.8651 14.5139 20.5954C14.8135 20.3257 14.9634 19.9839 14.9634 19.5699C14.9634 19.1496 14.8102 18.8047 14.5039 18.5349C14.2042 18.259 13.818 18.121 13.3452 18.121C12.8724 18.121 12.4828 18.259 12.1765 18.5349Z" fill="#F2F2F2"/>
<path fill-rule="evenodd" clip-rule="evenodd" d="M27 13.5C27 20.9558 20.9558 27 13.5 27C6.04416 27 0 20.9558 0 13.5C0 6.04416 6.04416 0 13.5 0C20.9558 0 27 6.04416 27 13.5ZM25 13.5C25 19.8513 19.8513 25 13.5 25C7.14873 25 2 19.8513 2 13.5C2 7.14873 7.14873 2 13.5 2C19.8513 2 25 7.14873 25 13.5Z" fill="#F2F2F2"/>
</svg>
