<svg width="22" height="22" viewBox="0 0 22 22" fill="none" xmlns="http://www.w3.org/2000/svg">
<path fill-rule="evenodd" clip-rule="evenodd" d="M22 7.94367C22 12.3308 18.5675 15.8873 14.3333 15.8873C12.2609 15.8873 10.3805 15.0354 9.00069 13.6511L0.942817 22L0 21.0231L8.12461 12.605C7.20741 11.2958 6.66654 9.68519 6.66654 7.94367C6.66654 3.5565 10.0991 0 14.3333 0C18.5675 0 22 3.5565 22 7.94367ZM20.6667 7.94367C20.6667 11.5679 17.8311 14.5058 14.3333 14.5058C10.8354 14.5058 7.99988 11.5679 7.99988 7.94367C7.99988 4.31949 10.8354 1.38151 14.3333 1.38151C17.8311 1.38151 20.6667 4.31949 20.6667 7.94367Z" fill="#F2F2F2"/>
</svg>
