<svg width="23" height="28" viewBox="0 0 23 28" fill="none" xmlns="http://www.w3.org/2000/svg">
<path d="M16.0303 14.35C16.0303 13.7701 15.5622 13.3 14.9848 13.3H8.01515C7.43777 13.3 6.9697 13.7701 6.9697 14.35V15.0493C6.9697 16.45 8.89765 17.5 11.5 17.5C14.1022 17.5 16.0303 16.45 16.0303 15.0493V14.35ZM13.9394 9.44366C13.9394 8.09008 12.8477 7 11.5 7C10.1523 7 9.06061 8.09008 9.06061 9.44366C9.06061 10.7972 10.1523 11.8945 11.5 11.8945C12.8477 11.8945 13.9394 10.7972 13.9394 9.44366ZM0 3.5C0 1.56701 1.56022 0 3.48485 0H19.5152C21.4398 0 23 1.56701 23 3.5V23.45C23 24.0299 22.5319 24.5 21.9545 24.5H1.5C1.5 25.2732 2.715 25.9 3.48485 25.9H21.9545C22.5319 25.9 23 26.0237 23 26.5C23 27.5 22.5319 27.5 21.9545 27.5H3.48485C1.56022 27.5 0 26.433 0 24.5V3.5ZM1.5 3.5V22.9909L21.5 23V3.5C21.5 2.72681 20.285 1.5 19.5152 1.5H3.48485C2.715 1.5 1.5 2.72681 1.5 3.5Z" fill="#F2F2F2"/>
</svg>
