<svg width="29" height="22" viewBox="0 0 29 22" fill="none" xmlns="http://www.w3.org/2000/svg">
<path fill-rule="evenodd" clip-rule="evenodd" d="M28.1452 7.94367C28.1452 12.3308 23.8654 15.8873 18.5861 15.8873C16.0021 15.8873 13.6577 15.0354 11.9372 13.6511L1.89038 22L0.714844 21.0231L10.8449 12.605C9.7013 11.2958 9.02692 9.68519 9.02692 7.94367C9.02692 3.5565 13.3067 0 18.5861 0C23.8654 0 28.1452 3.5565 28.1452 7.94367ZM26.4828 7.94367C26.4828 11.5679 22.9473 14.5058 18.5861 14.5058C14.2249 14.5058 10.6894 11.5679 10.6894 7.94367C10.6894 4.31949 14.2249 1.38151 18.5861 1.38151C22.9473 1.38151 26.4828 4.31949 26.4828 7.94367Z" fill="#828282"/>
</svg>
